<svg width="435" height="137" viewBox="0 0 435 137" fill="none" xmlns="http://www.w3.org/2000/svg">
<path d="M430.018 37.7076C428.801 41.8774 426.896 46.9057 423.811 52.217C417.763 62.6227 410.065 69.1698 404.924 72.8302C407.358 68.934 410.311 63.0283 411.565 55.3963C412.028 52.5755 412.188 49.9623 412.178 47.651C408.339 47.651 404.499 47.651 400.66 47.651C402.801 45.4906 406.914 40.7265 408.669 33.4247C409.659 29.302 409.574 25.717 409.301 23.217H425.989C425.744 25.0755 425.14 27.9907 423.433 31.1794C421.744 34.3492 419.669 36.4623 418.254 37.6981H430.018V37.7076Z" fill="#1FE5A0"/>
<path d="M63.3397 30.7834V90.7929C59.085 88.9532 55.5002 85.8495 53.0568 81.9532C52.604 81.208 52.1699 80.4061 51.7643 79.5853C51.651 79.3306 51.5472 79.0665 51.434 78.7834C51.1132 78.1231 50.8587 77.4061 50.6606 76.6986C50.5379 76.3873 50.4622 76.0476 50.3773 75.708C49.8867 73.8778 49.6319 71.9627 49.6319 69.9722H31.6415C31.6415 71.9722 31.3868 73.8872 30.8962 75.708C30.8113 76.0476 30.7266 76.3967 30.6134 76.6986C30.4153 77.4061 30.1603 78.0948 29.8395 78.7834C29.7546 79.0382 29.6224 79.3212 29.5092 79.5853C29.1319 80.4061 28.6983 81.1797 28.2171 81.9532C25.7737 85.8495 22.1983 88.9532 17.9342 90.7929V30.7834H0V110.604H8.96226C12.0377 110.604 15.0472 110.274 17.9245 109.623C21.5566 108.802 25.0188 107.5 28.2075 105.783C33.0188 103.199 37.2357 99.6608 40.6319 95.4344C44.0187 99.6703 48.2453 103.199 53.0471 105.783C56.2358 107.5 59.698 108.802 63.3301 109.623C66.2263 110.274 69.2263 110.604 72.2923 110.604H81.2546V30.7834H63.3209H63.3397Z" fill="#261D44"/>
<path d="M154.604 30.7834V59.4249C153.49 58.6702 152.34 57.9721 151.151 57.3306C145.415 54.2552 138.858 52.5099 131.905 52.5099C124.953 52.5099 118.387 54.2457 112.66 57.3306C111.471 57.9721 110.321 58.6702 109.208 59.4249V30.7834H91.2734V110.595H109.208V93.1419H109.236C109.236 91.1419 109.49 89.2363 109.981 87.4061C110.066 87.0665 110.151 86.7174 110.264 86.406C110.462 85.6891 110.717 85.0099 111.038 84.3212C111.123 84.0665 111.264 83.7835 111.377 83.5193C111.745 82.6891 112.179 81.925 112.66 81.1514C116.679 74.7363 123.783 70.4626 131.905 70.4626C140.028 70.4626 147.132 74.7363 151.151 81.1514C151.604 81.8967 152.038 82.6891 152.434 83.5193C152.547 83.774 152.66 84.0287 152.773 84.3212C153.085 84.9815 153.34 85.6891 153.547 86.406C153.66 86.7174 153.745 87.0665 153.83 87.4061C154.311 89.2268 154.575 91.1419 154.575 93.1419H154.604V110.595H172.538V30.7834H154.604Z" fill="#261D44"/>
<path d="M200.482 30.9243H182.547V110.736H200.482V30.9243Z" fill="#261D44"/>
<path d="M344.642 30.915H326.708V110.726H344.642V30.915Z" fill="#261D44"/>
<path d="M430.708 50.2924C429.963 51.8302 429.161 53.3396 428.303 54.8208C425.209 60.151 421.463 65 417.095 69.3397V73.151H417.039C417.039 75.151 416.784 77.0661 416.293 78.8868C416.218 79.2264 416.124 79.5756 416.011 79.8869C415.813 80.5944 415.558 81.3114 415.246 81.9717C415.124 82.2453 415.01 82.5095 414.897 82.7642C414.501 83.5849 414.077 84.3868 413.614 85.1321C409.596 91.5472 402.491 95.8207 394.369 95.8207C386.246 95.8207 379.143 91.5472 375.114 85.1321C374.633 84.3679 374.209 83.5849 373.841 82.7642C373.727 82.5095 373.577 82.2265 373.501 81.9717C373.18 81.2831 372.925 80.5944 372.727 79.8869C372.614 79.5756 372.529 79.2264 372.444 78.8868C371.954 77.0661 371.699 75.151 371.699 73.151H371.671V68.4811H371.699C371.699 66.4811 371.954 64.5661 372.444 62.7453C372.529 62.4057 372.614 62.0566 372.727 61.7453C372.925 61.0377 373.18 60.3491 373.501 59.6699C373.577 59.4057 373.727 59.1227 373.841 58.868C374.209 58.0378 374.633 57.2736 375.114 56.5001C379.143 50.085 386.246 45.8113 394.369 45.8113C394.642 45.8113 394.907 45.8113 395.171 45.8302L396.973 44.0095C399.275 41.6887 402.293 37.7642 403.623 32.217C403.878 31.1699 404.058 30.1038 404.171 29.0378C401.029 28.2548 397.746 27.8491 394.369 27.8491C387.406 27.8491 380.85 29.5849 375.114 32.6604C373.265 33.6604 371.501 34.802 369.822 36.1133C360.067 43.5001 353.737 55.2453 353.737 68.4811V73.151C353.737 87.1888 360.86 99.5567 371.671 106.859C372.784 107.632 373.926 108.34 375.114 108.972C380.85 112.047 387.406 113.783 394.369 113.783C401.331 113.783 407.888 112.047 413.614 108.972C414.812 108.311 415.982 107.632 417.095 106.83C427.897 99.5566 435.001 87.1888 435.001 73.151V68.4811C435.001 61.9245 433.454 55.7547 430.708 50.2924Z" fill="#261D44"/>
<path d="M308.51 64.1316C313.043 64.1316 316.718 60.457 316.718 55.9242C316.718 51.3913 313.043 47.7166 308.51 47.7166C303.977 47.7166 300.302 51.3913 300.302 55.9242C300.302 60.457 303.977 64.1316 308.51 64.1316Z" fill="#261D44"/>
<path d="M281.434 74.5853C288.292 63.9909 289.868 53.7929 290.311 48.7174C290.556 45.6608 290.707 42.34 290.669 38.7929C290.641 35.9627 290.509 33.2834 290.311 30.7834H210.472V48.7174H272.443C270.792 61.1797 265.424 68.8023 262.698 72.1419C262.698 72.1419 252.424 84.7269 230.009 90.2363C226.839 91.0193 223.49 91.5758 223.49 91.5758C221.669 91.8777 220.415 92.0381 220.415 92.0381C217.151 92.4437 213.83 92.6513 210.453 92.6513V110.595H290.292V92.6608H262.519C266.868 90.1042 274.934 84.5947 281.424 74.5853H281.434Z" fill="#261D44"/>
</svg>
